<mxfile host="app.diagrams.net" modified="2020-11-06T16:35:05.112Z" agent="5.0 (iPad; CPU OS 14_1 like Mac OS X) AppleWebKit/605.1.15 (KHTML, like Gecko) Version/14.0 EdgiOS/45.9.35 Mobile/15E148 Safari/605.1.15" etag="BB4PmiKM4CmHAnOc8k8U" version="13.9.2" type="github">
  <diagram id="suAMMIN2RDbkpU6RI_vG" name="Page-1">
    <mxGraphModel dx="776" dy="699" grid="1" gridSize="10" guides="1" tooltips="1" connect="1" arrows="1" fold="1" page="1" pageScale="1" pageWidth="827" pageHeight="1169" math="0" shadow="0">
      <root>
        <mxCell id="0" />
        <mxCell id="1" parent="0" />
        <mxCell id="ZGRjKWiL41gLOBVyt_kN-16" value="……" style="whiteSpace=wrap;html=1;" vertex="1" parent="1">
          <mxGeometry x="80" y="640" width="160" height="80" as="geometry" />
        </mxCell>
        <mxCell id="ZGRjKWiL41gLOBVyt_kN-1" value="子过程1" style="rounded=0;whiteSpace=wrap;html=1;" vertex="1" parent="1">
          <mxGeometry x="80" y="160" width="160" height="80" as="geometry" />
        </mxCell>
        <mxCell id="ZGRjKWiL41gLOBVyt_kN-15" value="" style="edgeStyle=orthogonalEdgeStyle;rounded=0;orthogonalLoop=1;jettySize=auto;html=1;" edge="1" parent="1" source="ZGRjKWiL41gLOBVyt_kN-2" target="ZGRjKWiL41gLOBVyt_kN-1">
          <mxGeometry relative="1" as="geometry" />
        </mxCell>
        <mxCell id="ZGRjKWiL41gLOBVyt_kN-2" value="进入循环" style="rhombus;whiteSpace=wrap;html=1;" vertex="1" parent="1">
          <mxGeometry x="80" y="40" width="160" height="80" as="geometry" />
        </mxCell>
        <mxCell id="ZGRjKWiL41gLOBVyt_kN-9" value="" style="edgeStyle=orthogonalEdgeStyle;rounded=0;orthogonalLoop=1;jettySize=auto;html=1;" edge="1" parent="1" source="ZGRjKWiL41gLOBVyt_kN-3" target="ZGRjKWiL41gLOBVyt_kN-6">
          <mxGeometry relative="1" as="geometry" />
        </mxCell>
        <mxCell id="ZGRjKWiL41gLOBVyt_kN-3" value="延时" style="rounded=0;whiteSpace=wrap;html=1;" vertex="1" parent="1">
          <mxGeometry x="80" y="280" width="160" height="80" as="geometry" />
        </mxCell>
        <mxCell id="ZGRjKWiL41gLOBVyt_kN-10" value="" style="edgeStyle=orthogonalEdgeStyle;rounded=0;orthogonalLoop=1;jettySize=auto;html=1;" edge="1" parent="1" source="ZGRjKWiL41gLOBVyt_kN-6" target="ZGRjKWiL41gLOBVyt_kN-7">
          <mxGeometry relative="1" as="geometry" />
        </mxCell>
        <mxCell id="ZGRjKWiL41gLOBVyt_kN-6" value="子过程又" style="whiteSpace=wrap;html=1;" vertex="1" parent="1">
          <mxGeometry x="80" y="400" width="160" height="80" as="geometry" />
        </mxCell>
        <mxCell id="ZGRjKWiL41gLOBVyt_kN-14" style="edgeStyle=orthogonalEdgeStyle;rounded=0;orthogonalLoop=1;jettySize=auto;html=1;entryX=1;entryY=0.5;entryDx=0;entryDy=0;exitX=0.5;exitY=1;exitDx=0;exitDy=0;" edge="1" parent="1" source="ZGRjKWiL41gLOBVyt_kN-16" target="ZGRjKWiL41gLOBVyt_kN-1">
          <mxGeometry relative="1" as="geometry">
            <mxPoint x="160" y="640" as="targetPoint" />
            <mxPoint x="360" y="770" as="sourcePoint" />
            <Array as="points">
              <mxPoint x="160" y="760" />
              <mxPoint x="320" y="760" />
              <mxPoint x="320" y="200" />
            </Array>
          </mxGeometry>
        </mxCell>
        <mxCell id="ZGRjKWiL41gLOBVyt_kN-17" value="" style="edgeStyle=orthogonalEdgeStyle;rounded=0;orthogonalLoop=1;jettySize=auto;html=1;" edge="1" parent="1" source="ZGRjKWiL41gLOBVyt_kN-7" target="ZGRjKWiL41gLOBVyt_kN-16">
          <mxGeometry relative="1" as="geometry" />
        </mxCell>
        <mxCell id="ZGRjKWiL41gLOBVyt_kN-7" value="延时" style="whiteSpace=wrap;html=1;" vertex="1" parent="1">
          <mxGeometry x="80" y="520" width="160" height="80" as="geometry" />
        </mxCell>
        <mxCell id="ZGRjKWiL41gLOBVyt_kN-8" value="" style="endArrow=classic;html=1;exitX=0.5;exitY=1;exitDx=0;exitDy=0;entryX=0.5;entryY=0;entryDx=0;entryDy=0;" edge="1" parent="1" source="ZGRjKWiL41gLOBVyt_kN-1" target="ZGRjKWiL41gLOBVyt_kN-3">
          <mxGeometry width="50" height="50" relative="1" as="geometry">
            <mxPoint x="280" y="460" as="sourcePoint" />
            <mxPoint x="330" y="410" as="targetPoint" />
          </mxGeometry>
        </mxCell>
      </root>
    </mxGraphModel>
  </diagram>
</mxfile>
